<svg width="1211" height="1112" viewBox="0 0 1211 1112" fill="none" xmlns="http://www.w3.org/2000/svg">
<g clip-path="url(#clip0_3952_3326)">
<path d="M1210 0H0V319H1210V0Z" fill="#4083FF"/>
<path d="M1210 560H0V633H1210V560Z" fill="#EC0D0D"/>
<path d="M1210 379H0V500H1210V379Z" fill="#002578"/>
<path d="M252.167 633.383H1013.94C1027.71 610.452 1038.49 585.851 1046 560.182H252.255L252.167 633.383Z" fill="#919191"/>
<path d="M498.714 289.423H697.151C724.711 289.423 755.668 296.214 778.686 318.968H1053.54C1010.68 119.252 841.084 69.2021 678.454 69.2021H146.643V107.787H252.167V318.968H498.714V289.423Z" fill="#717070"/>
<path d="M498.714 379.295H252.167V499.901H498.714V379.295Z" fill="#A4A4A4"/>
<path d="M813.258 423.215C813.258 455.847 807.657 480.85 798.529 499.856H1058.97C1062.43 474.487 1064.13 448.908 1064.04 423.303C1064.04 408.001 1063.42 393.361 1062.32 379.206H809.113C811.986 393.697 813.375 408.443 813.258 423.215Z" fill="#A4A4A4"/>
<path d="M498.714 319.015H252.167V379.295H498.714V319.015Z" fill="black"/>
<path d="M778.863 318.973C792.666 332.643 803.558 352.09 809.114 379.297H1062.32C1060.79 359.021 1057.92 338.869 1053.72 318.973H778.863Z" fill="black"/>
<path d="M697.327 560.181H498.89V499.856H252.167V560.181H1045.92C1051.75 540.427 1056.08 520.262 1058.88 499.856H798.53C776.614 545.806 733.972 560.181 697.327 560.181Z" fill="black"/>
<path d="M498.713 289.425V318.97H778.862C755.843 296.216 724.887 289.425 697.326 289.425H498.713Z" fill="#4083FF"/>
<path d="M146.643 107.788V69.2031H678.63C841.26 69.2031 1010.86 119.253 1053.72 318.969H1210.49V0.279297H0.240234V318.969H252.167V107.788H146.643Z" fill="#4083FF"/>
<path d="M252.169 1072.82H146.645V1111.49H595.376V1072.82H498.716V778.732H684.232C813.525 778.732 944.67 747.071 1013.95 633.212H252.169V1072.82Z" fill="black"/>
<g style="mix-blend-mode:multiply">
<path d="M498.716 289.429H697.153C724.713 289.429 755.67 296.22 778.688 318.974H1053.55C1010.68 119.258 841.086 69.208 678.456 69.208H146.645V107.793H252.169V318.974H498.716V289.429Z" fill="#4083FF"/>
</g>
<path d="M1058.97 499.856H1210.48V379.295H1062.32C1063.42 393.362 1064.04 408.002 1064.04 423.392C1064.12 448.967 1062.43 474.517 1058.97 499.856V499.856Z" fill="#002578"/>
<path d="M498.713 499.861H798.573C807.701 480.855 813.302 455.764 813.302 423.22C813.425 408.418 812.036 393.643 809.157 379.123H498.713V499.861Z" fill="#002578"/>
<g style="mix-blend-mode:multiply">
<path d="M498.714 379.295H252.167V499.901H498.714V379.295Z" fill="#002578"/>
</g>
<g style="mix-blend-mode:multiply">
<path d="M813.258 423.215C813.258 455.847 807.657 480.85 798.529 499.856H1058.97C1062.43 474.487 1064.13 448.908 1064.04 423.303C1064.04 408.001 1063.42 393.361 1062.32 379.206H809.113C811.986 393.697 813.375 408.443 813.258 423.215Z" fill="#002578"/>
</g>
<path d="M1210.48 633.383V560.182H1046C1038.49 585.851 1027.71 610.452 1013.94 633.383H1210.48Z" fill="#EC0D0D"/>
<g style="mix-blend-mode:multiply">
<path d="M252.167 633.383H1013.94C1027.71 610.452 1038.49 585.851 1046 560.182H252.255L252.167 633.383Z" fill="#EC0D0D"/>
</g>
</g>
<defs>
<clipPath id="clip0_3952_3326">
<rect width="1210.49" height="1111.49" fill="white"/>
</clipPath>
</defs>
</svg>
