<svg id="Layer_1" data-name="Layer 1" xmlns="http://www.w3.org/2000/svg" viewBox="0 0 200 200"><path d="M104,108.58v17.71c2.71-.55,4.67-1.51,5.88-2.91a7.83,7.83,0,0,0,1.83-5.34,8.23,8.23,0,0,0-2.17-6.08A14.78,14.78,0,0,0,104,108.58Z"/><path d="M89.49,85.34a6.22,6.22,0,0,0,1.83,4.8,14,14,0,0,0,4.8,2.77V78.58Q89.49,79.66,89.49,85.34Z"/><path d="M100.24,27a75,75,0,1,0,75,75A75,75,0,0,0,100.24,27Zm25.88,98.78a20.83,20.83,0,0,1-5.14,6.9,23.35,23.35,0,0,1-7.63,4.39,30.65,30.65,0,0,1-9.4,1.69v7.7H96.12V138a23.35,23.35,0,0,1-6-2,19.5,19.5,0,0,1-4.6-3.17v4.73H72.47V114.8h13.1a13.49,13.49,0,0,0,2.17,7.7q2.16,3.24,8.38,3.92V106.55c-2.71-.45-5.43-1-8.18-1.75a26,26,0,0,1-7.43-3.18A16.36,16.36,0,0,1,75.1,96,18.16,18.16,0,0,1,73,86.69a19.72,19.72,0,0,1,2.09-9.53,18.79,18.79,0,0,1,5.41-6.28,21.86,21.86,0,0,1,7.43-3.52,37,37,0,0,1,8.18-1.21V57.5H104V67A22.66,22.66,0,0,1,112.47,71V67.23h13v22.7h-13a28.68,28.68,0,0,0-.27-4.05A9.23,9.23,0,0,0,111,82.43a7.77,7.77,0,0,0-2.57-2.56A11.47,11.47,0,0,0,104,78.45V94.66c2.17.45,4.64,1,7.44,1.76a27.33,27.33,0,0,1,7.9,3.45,19.88,19.88,0,0,1,6.22,6.35,19,19,0,0,1,2.5,10.2A21.82,21.82,0,0,1,126.12,125.74Z"/></svg>