<svg id="Layer_1" data-name="Layer 1" xmlns="http://www.w3.org/2000/svg" viewBox="0 0 200 200"><path d="M134.24,75.58q.06-.84.06-1.68h0a25.4,25.4,0,0,0-10-20.14h45.14v-5.3H91.13A25.51,25.51,0,0,0,65.7,73.9h0q0,.84.06,1.68H13.42v47H26.73a22.92,22.92,0,0,1,22-16.67h98.66a22.92,22.92,0,0,1,22,16.67h17.24V75.58Z"/><path d="M146.28,109.32H49.13a19.87,19.87,0,0,0-19.82,19.81h0a19.87,19.87,0,0,0,19.82,19.81h97.15a19.86,19.86,0,0,0,19.81-19.81h0A19.86,19.86,0,0,0,146.28,109.32ZM62.19,139.16a10,10,0,1,1,10-10A10,10,0,0,1,62.19,139.16Zm35.62,0a10,10,0,1,1,10-10A10,10,0,0,1,97.81,139.16Zm35.62,0a10,10,0,1,1,10-10A10,10,0,0,1,133.43,139.16Z"/></svg>