<svg id="Layer_1" data-name="Layer 1" xmlns="http://www.w3.org/2000/svg" viewBox="0 0 200 200"><circle cx="135.06" cy="86.77" r="8.19"/><path d="M158.08,124.11l-10.2-20.8a4.1,4.1,0,0,0-.56-.84,9.31,9.31,0,0,0-7.78-4.2h-8.95a9.28,9.28,0,0,0-7.72,4.11,4.21,4.21,0,0,0-.66.93L112,124.11a4,4,0,0,0,1.85,5.39h0a4,4,0,0,0,5.39-1.84l5.44-11.1v15h0l0,39.26H120v3.4h14.15v-3.4h0l0-37.91H136l0,37.91h0v3.4h14.15v-3.4h-4.68l0-37.91h.05V116.86l5.29,10.8a4,4,0,0,0,7.24-3.55Z"/><circle cx="79.29" cy="36.55" r="11.55"/><path d="M113.86,105.37a5.69,5.69,0,0,0,2.6-7.6L97.87,59.85a5.72,5.72,0,0,0-2.18-2.36A13.1,13.1,0,0,0,85.6,52.76H73a13.11,13.11,0,0,0-10.09,4.73,5.7,5.7,0,0,0-2.17,2.36l-18.63,38a5.7,5.7,0,0,0,2.59,7.6h0a5.7,5.7,0,0,0,7.61-2.6l10.81-22L51.05,126.28H64.73l0,44.95H59.82V175h18.6l0-48.72h1.91l0,44.95h0V175H98.76v-3.77H94.05l0-44.95H107.7L96.29,82.45l10,20.32A5.69,5.69,0,0,0,113.86,105.37Z"/></svg>