<svg id="Layer_1" data-name="Layer 1" xmlns="http://www.w3.org/2000/svg" viewBox="0 0 200 200"><path d="M100.06,48.13A11.57,11.57,0,1,0,88.5,36.56,11.57,11.57,0,0,0,100.06,48.13Z"/><path d="M137.32,98,118.66,59.89a5.72,5.72,0,0,0-2.18-2.36,13.13,13.13,0,0,0-10.1-4.74H93.75a13.11,13.11,0,0,0-10.1,4.74,5.72,5.72,0,0,0-2.18,2.36L62.68,98.21a5.69,5.69,0,0,0,10.21,5L85.43,77.66v38.5h.06l0,55.07H80.57V175H99.19l0-58.84h1.91l0,55.07h0V175h18.46v-3.77h-4.72l0-70.74h0V78l12.24,25a5.7,5.7,0,0,0,7.61,2.6h0A5.7,5.7,0,0,0,137.32,98Z"/></svg>