<svg id="Layer_1" data-name="Layer 1" xmlns="http://www.w3.org/2000/svg" viewBox="0 0 200 200"><path d="M45,48.13A11.57,11.57,0,1,0,33.42,36.56,11.56,11.56,0,0,0,45,48.13Z"/><path d="M72,103a5.7,5.7,0,0,0,7.61,2.6h0A5.7,5.7,0,0,0,82.24,98L63.58,59.89a5.72,5.72,0,0,0-2.18-2.36,13.13,13.13,0,0,0-10.1-4.74H38.67a13.13,13.13,0,0,0-10.11,4.74,5.64,5.64,0,0,0-2.17,2.36L7.6,98.21a5.7,5.7,0,0,0,2.6,7.61h0a5.7,5.7,0,0,0,7.61-2.6L30.34,77.66v45.39h.06l0,48.18H25.49V175H44.11l0-51.95h1.9l0,48.18h0V175H64.48v-3.77H59.76l0-48.18H72.58L59.78,78.46V78Z"/><circle cx="155.02" cy="36.56" r="11.56"/><path d="M192.4,98.21,173.61,59.89a5.64,5.64,0,0,0-2.17-2.36,13.13,13.13,0,0,0-10.11-4.74H148.7a13.13,13.13,0,0,0-10.1,4.74,5.72,5.72,0,0,0-2.18,2.36L117.76,98a5.7,5.7,0,0,0,2.6,7.61h0A5.7,5.7,0,0,0,128,103l12.25-25v.47l-12.8,44.59h12.79l0,48.18h-4.72V175H154v-3.77h0l0-48.18h1.9l0,52h18.62v-3.77h-4.88l0-48.18h.05V77.66l12.54,25.56a5.69,5.69,0,0,0,10.21-5Z"/><path d="M99.73,94.87a8.21,8.21,0,1,0-8.21-8.2A8.2,8.2,0,0,0,99.73,94.87Z"/><path d="M112.56,103.22a4,4,0,0,0-.57-.84,9.3,9.3,0,0,0-7.78-4.2h-9a9.3,9.3,0,0,0-7.72,4.11,3.83,3.83,0,0,0-.66.93L76.65,124a4,4,0,1,0,7.24,3.56l5.45-11.11v15h0l0,39.31H84.63v3.41H98.79v-3.41h0l0-38h1.9l0,38h0v3.41h14.17v-3.41h-4.69l0-38h0v-16.1l5.3,10.81a4,4,0,1,0,7.24-3.56Z"/></svg>