<svg id="Layer_1" data-name="Layer 1" xmlns="http://www.w3.org/2000/svg" viewBox="0 0 200 200"><path d="M170.05,83.73v8.62H138.8a39.26,39.26,0,0,0-6-14.38l22.09-22.09L161,62l3.5-3.5-23-23L138,39l6.09,6.1L122,67.15a39.26,39.26,0,0,0-14.38-6V30h8.62V25H83.73V30h8.62V61.2a39.26,39.26,0,0,0-14.38,6L55.88,45.06,62,39l-3.5-3.5-23,23L39,62l6.1-6.09L67.15,78a39.26,39.26,0,0,0-6,14.38H30V83.73H25v32.54H30v-8.62H61.2a39.26,39.26,0,0,0,6,14.38L45.06,144.12,39,138l-3.5,3.5,23,23L62,161l-6.09-6.1L78,132.85a39.26,39.26,0,0,0,14.38,6v31.25H83.73V175h32.54v-4.95h-8.62V138.8a39.26,39.26,0,0,0,14.38-6l22.09,22.09L138,161l3.5,3.5,23-23L161,138l-6.1,6.09L132.85,122a39.26,39.26,0,0,0,6-14.38h31.25v8.62H175V83.73Z"/></svg>