<svg id="Layer_1" data-name="Layer 1" xmlns="http://www.w3.org/2000/svg" viewBox="0 0 200 200"><path d="M153.63,48.13a11.57,11.57,0,1,0-11.57-11.57A11.57,11.57,0,0,0,153.63,48.13Z"/><path d="M190.88,98,172.22,59.89A5.72,5.72,0,0,0,170,57.53a13.11,13.11,0,0,0-10.1-4.74H147.31a13.13,13.13,0,0,0-10.1,4.74A5.72,5.72,0,0,0,135,59.89L116.24,98.21a5.69,5.69,0,1,0,10.21,5L139,77.66v38.5h.06l0,55.07h-4.88V175h18.62l0-58.84h1.91l0,55.07h0V175h18.46v-3.77H168.4l0-70.74h0V78l12.24,25a5.7,5.7,0,0,0,7.61,2.6h0A5.7,5.7,0,0,0,190.88,98Z"/><path d="M46.5,48.13A11.57,11.57,0,1,0,34.94,36.56,11.56,11.56,0,0,0,46.5,48.13Z"/><path d="M81.16,105.56h0A5.7,5.7,0,0,0,83.76,98L65.1,59.89a5.72,5.72,0,0,0-2.18-2.36,13.13,13.13,0,0,0-10.1-4.74H40.19a13.13,13.13,0,0,0-10.11,4.74,5.64,5.64,0,0,0-2.17,2.36L9.12,98.21a5.69,5.69,0,0,0,10.21,5L31.87,77.66v38.5h.06l0,55.07H27V175H45.63l0-58.84h1.9l0,55.07h0V175H66v-3.77H61.28l0-70.74h0V78l12.25,25A5.7,5.7,0,0,0,81.16,105.56Z"/><path d="M101.25,94.87A8.21,8.21,0,1,0,93,86.67,8.2,8.2,0,0,0,101.25,94.87Z"/><path d="M114.08,103.22a4,4,0,0,0-.57-.84,9.3,9.3,0,0,0-7.78-4.2h-9A9.3,9.3,0,0,0,89,102.29a3.83,3.83,0,0,0-.66.93L78.17,124a4,4,0,1,0,7.24,3.56l5.45-11.11v15h0l0,39.31H86.15v3.41h14.16v-3.41h0l0-38h1.9l0,38h0v3.41h14.17v-3.41h-4.69l0-38h0v-16.1l5.3,10.81a4,4,0,1,0,7.24-3.56Z"/></svg>