<svg id="Layer_1" data-name="Layer 1" xmlns="http://www.w3.org/2000/svg" viewBox="0 0 200 200"><path d="M161,82.53,173.48,93l3.88-4.63-8-6.69L104.94,26.21a4.14,4.14,0,0,0-5.84,0L42.23,74.94l-16,13.4L30.08,93l12.2-10.21,9.17,0v73.55H50.08a3.94,3.94,0,0,0-3.93,3.94v8.09H31V175H172.4v-6.68H157.29v-8.09a3.94,3.94,0,0,0-3.93-3.94H152V82.55Zm-26,73.76H68.48V82.71L135,82.58Z"/><path d="M99.81,108.7c-1.91.32-2.87,1.29-2.87,2.93a2.72,2.72,0,0,0,.79,2.08,6.12,6.12,0,0,0,2.08,1.2Z"/><path d="M106.55,125.81a3.56,3.56,0,0,0-.93-2.63,6.37,6.37,0,0,0-2.41-1.47v7.68a4.33,4.33,0,0,0,2.55-1.26A3.4,3.4,0,0,0,106.55,125.81Z"/><path d="M101.72,148.87a28.61,28.61,0,1,0-28.61-28.61A28.61,28.61,0,0,0,101.72,148.87ZM89.56,124.41h5.68a5.92,5.92,0,0,0,.94,3.34c.63.94,1.84,1.5,3.63,1.7v-8.62c-1.17-.19-2.35-.45-3.54-.76a11.11,11.11,0,0,1-3.22-1.38,7,7,0,0,1-2.35-2.46,7.91,7.91,0,0,1-.91-4,8.61,8.61,0,0,1,.91-4.13,8.12,8.12,0,0,1,2.35-2.73,9.37,9.37,0,0,1,3.22-1.52,16.22,16.22,0,0,1,3.54-.53V99.56h3.4v4.1a9.84,9.84,0,0,1,3.7,1.76v-1.64h5.62v9.85h-5.62a12.07,12.07,0,0,0-.12-1.76,4,4,0,0,0-.53-1.5,3.27,3.27,0,0,0-1.11-1.11,5.15,5.15,0,0,0-1.94-.62v7c.94.19,2,.45,3.23.76a12,12,0,0,1,3.43,1.49,8.77,8.77,0,0,1,2.69,2.76,8.2,8.2,0,0,1,1.09,4.42,9.6,9.6,0,0,1-.82,4,8.94,8.94,0,0,1-2.23,3,10.12,10.12,0,0,1-3.31,1.91,13.23,13.23,0,0,1-4.08.73v3.34h-3.4v-3.63a10.48,10.48,0,0,1-2.57-.85,8.28,8.28,0,0,1-2-1.38v2.05H89.56Z"/></svg>