<svg id="Layer_1" data-name="Layer 1" xmlns="http://www.w3.org/2000/svg" viewBox="0 0 200 200"><path d="M100,48.1A11.55,11.55,0,1,0,88.47,36.55,11.55,11.55,0,0,0,100,48.1Z"/><path d="M137.19,97.77l-18.6-37.92a5.7,5.7,0,0,0-2.17-2.36,13.1,13.1,0,0,0-10.09-4.73H93.71a13.1,13.1,0,0,0-10.09,4.73,5.64,5.64,0,0,0-2.17,2.36l-18.64,38a5.71,5.71,0,0,0,2.6,7.6h0a5.68,5.68,0,0,0,7.6-2.6l10.81-22-12,45.47H85.46l0,44.95H80.55V175h18.6l0-48.72h1.9l0,44.95h0V175h18.44v-3.77h-4.71l0-44.95h13.62L117,82.45l10,20.32a5.68,5.68,0,1,0,10.2-5Z"/></svg>