<svg id="Layer_1" data-name="Layer 1" xmlns="http://www.w3.org/2000/svg" viewBox="0 0 200 200"><circle cx="154.04" cy="36.73" r="11.55"/><path d="M191.25,98,172.61,60a5.55,5.55,0,0,0-2.17-2.35,13.07,13.07,0,0,0-10.09-4.74H147.73a13.07,13.07,0,0,0-10.09,4.74A5.62,5.62,0,0,0,135.47,60L116.7,98.3a5.68,5.68,0,0,0,10.2,5l12.52-25.53v38.45h.06l0,55h-4.88V175h17.62v-3.77h-.05l0-55h4l0,55h0V175h17.4v-3.77H168.8l0-70.65h0V78.11L181.05,103a5.68,5.68,0,1,0,10.2-5Z"/><circle cx="101.73" cy="86.77" r="8.19"/><path d="M114.54,103.31a4.1,4.1,0,0,0-.56-.84,9.31,9.31,0,0,0-7.78-4.2h-9a9.3,9.3,0,0,0-7.72,4.11,4.21,4.21,0,0,0-.66.93l-10.2,20.8a4,4,0,0,0,7.24,3.55l5.44-11.1v15h0l0,39.26H86.65v3.4H99.76v-3.4h0l0-37.91h4l0,37.91h0v3.4h13.12v-3.4h-4.68l0-37.91h0V116.86l5.3,10.8a4,4,0,1,0,7.23-3.55Z"/><circle cx="45.95" cy="36.55" r="11.55"/><path d="M80.52,105.37a5.69,5.69,0,0,0,2.6-7.6L64.53,59.85a5.72,5.72,0,0,0-2.18-2.36,13.08,13.08,0,0,0-10.09-4.73H39.64a13.11,13.11,0,0,0-10.09,4.73,5.77,5.77,0,0,0-2.17,2.36l-18.63,38a5.68,5.68,0,1,0,10.2,5l10.81-22-12,45.47H31.39l0,44.95H26.48V175H44.05v-1.9l0-46.82h4l0,44.95h0V175H65.43v-3.77H60.71l0-44.95H74.36L63,82.45l10,20.32A5.69,5.69,0,0,0,80.52,105.37Z"/></svg>