<svg id="Layer_1" data-name="Layer 1" xmlns="http://www.w3.org/2000/svg" viewBox="0 0 200 200"><path d="M114.52,84.3a4.31,4.31,0,0,0-1.14-3.19,7.68,7.68,0,0,0-2.91-1.77v9.29a5.37,5.37,0,0,0,3.09-1.53A4.09,4.09,0,0,0,114.52,84.3Z"/><path d="M106.36,63.59q-3.48.57-3.48,3.55a3.25,3.25,0,0,0,1,2.51,7.28,7.28,0,0,0,2.52,1.46Z"/><path d="M108.31,113.54A37.78,37.78,0,1,0,70.54,75.76,37.77,37.77,0,0,0,108.31,113.54ZM93.94,82.6h6.89a7.07,7.07,0,0,0,1.13,4c.76,1.14,2.22,1.82,4.4,2.06V78.27c-1.42-.23-2.85-.54-4.29-.92a13.62,13.62,0,0,1-3.91-1.67,8.53,8.53,0,0,1-2.83-3,9.45,9.45,0,0,1-1.1-4.86,10.3,10.3,0,0,1,1.1-5,10,10,0,0,1,2.83-3.29,11.28,11.28,0,0,1,3.91-1.85,19.45,19.45,0,0,1,4.29-.64V52.52h4.11v5a11.73,11.73,0,0,1,4.47,2.13v-2h6.81V69.55h-6.81a15.76,15.76,0,0,0-.14-2.13,4.83,4.83,0,0,0-.64-1.81,4.15,4.15,0,0,0-1.35-1.35,6,6,0,0,0-2.34-.74V72c1.14.24,2.44.54,3.9.92a14.31,14.31,0,0,1,4.15,1.81,10.62,10.62,0,0,1,3.27,3.33,10,10,0,0,1,1.31,5.36,11.3,11.3,0,0,1-1,4.89A10.82,10.82,0,0,1,119.41,92a12,12,0,0,1-4,2.31,15.89,15.89,0,0,1-4.93.88v4h-4.11V94.8a12.42,12.42,0,0,1-3.12-1,9.78,9.78,0,0,1-2.41-1.67v2.49H93.94Z"/><path d="M159.61,127.46H58.43V123.2H74.64a6.79,6.79,0,1,0,0-13.57H44.24V95H32.5v65H44.24V147.29L91.6,160.54,161.53,143a7.89,7.89,0,0,0-1.92-15.54Z"/></svg>