<svg id="Layer_1" data-name="Layer 1" xmlns="http://www.w3.org/2000/svg" viewBox="0 0 200 200"><path d="M159.77,161.1h-1.09a10,10,0,0,0,1.09-4.52v-.12a10,10,0,0,0-10-10H104.65V77.17c5.71,0,19.42-.89,28.79-9.37,12.11-10.95,12.39-30.37,12.39-30.37s-19.35-1.67-31.46,9.28c-7.7,7-10.61,17.36-11.71,24-2.23-8-7.52-21.67-19-29.61-16.91-11.74-40.84-6.53-40.84-6.53s3.48,24.25,20.39,36C74.86,78.62,89.79,78.68,98,77.94v68.52H50.23a10,10,0,0,0-10,10v.12a10,10,0,0,0,1.09,4.52H28.92v5.48H171.08V161.1Z"/></svg>