<svg id="Layer_1" data-name="Layer 1" xmlns="http://www.w3.org/2000/svg" viewBox="0 0 200 200"><path d="M83.35,77.85c8.73,6.06,20,6,26,5.39v31.31h4.9V82.72c4.41,0,14.12-.84,20.81-6.9,8.92-8.06,9.12-22.35,9.12-22.35S129.89,52.24,121,60.3c-5.67,5.13-7.81,12.77-8.63,17.66C110.71,72.07,106.82,62,98.4,56.17c-12.45-8.64-30.06-4.8-30.06-4.8S70.91,69.21,83.35,77.85Z"/><path d="M159.61,126.81H58.43v-4.26H93.22a6.79,6.79,0,0,0,0-13.57h-49V94.31H32.5v65H44.24V146.64L91.6,159.89l69.93-17.54a7.89,7.89,0,0,0-1.92-15.54Z"/></svg>