<svg id="Layer_1" data-name="Layer 1" xmlns="http://www.w3.org/2000/svg" viewBox="0 0 200 200"><path d="M174.74,168.16h-.59a10.12,10.12,0,0,0,.59-3.4v-4.68a10.23,10.23,0,0,0-10.23-10.24h-8.45v-65l7.38,7.38,3.73-3.73L149.33,70.62l-.05,0-2.44-2.44c0-.17,0-.34,0-.51v-24a8.22,8.22,0,0,0-8.21-8.22h0a8.21,8.21,0,0,0-8.21,8.22v8.12L104.5,26a3.25,3.25,0,0,0-4.6,0l-45,44.68h0l-3.25,3.25-3.8,3.78h0L37.1,88.45l3.72,3.73,7.33-7.33v65H35.49a10.23,10.23,0,0,0-10.23,10.24v4.68a10.12,10.12,0,0,0,.59,3.4H11.11V175H188.89v-6.84Zm-91.39-66h36v47.65h-36Z"/></svg>