<svg id="Layer_1" data-name="Layer 1" xmlns="http://www.w3.org/2000/svg" viewBox="0 0 200 200"><path d="M100,22.34A77.66,77.66,0,1,0,177.66,100,77.75,77.75,0,0,0,100,22.34ZM172.34,100a72,72,0,0,1-11.44,39,12.35,12.35,0,0,1-2.88-.34l-1.55-3.89c-1.56-3.89,0,0,0-4.67s0,0-3-3.11,2.19-3.11-.14-7.78,0,0,.14-3.11-6.73-3.64-6.73-3.64,1.14-4.92.12-8,4.91-6.22,6.67-8.11,1.35-4.34,5-6.13.23-4.43-.55-6.76,1.56-3.89,0-6.29-6.22-3-6.22-3l-3.11-3.13c-3.11-3.12-1.56-4.65,0-7s0-8.08,0-8.08.73-3.33,1.74-7.66A72.11,72.11,0,0,1,172.34,100ZM70.89,35.33c5.08,1.51,4.84,2,4.71,2.14l3.63-2.14c3.67-2.16,3.33.61,6.44,0s7-.17,11.67.61,0,0,2.66-.61,5.12,7.61,5.12,7.61l-.78,3.89c-.78,3.89,0,0-4.34,3.39s.45,2.83-.33,8.28,0,0,.78,3.89,0,0,.78,3.11,0,0,3.11.93,3.89,6.07,5.45,9.46S109,78,104.34,80.28s-5.44-3.11-5.44-3.11l-3.11-.06c-3.12,0-8.56,0-8.56,0s-7.78.84-11.67,0-3.11,2.4-7,4.73-2.34,8.56-3.12,11.09S70.89,100,70.89,100h8.34s8,.51,10.33,1S100,104.4,100,104.4s9.79,2.33,11.34,4,2.34,8.46,4.63,11.84-5.4,9.7-5.4,9.7L105.12,134l-8.56,10.09s-8.55,4.67-11.67,7,2.34,5.44,2.34,5.44l.78,2.34c.77,2.33-3.89,3.11-7.78,0a34.6,34.6,0,0,0-7.78-4.67S63.11,142.52,60.78,134s-4.67-9.36-3.12-13.76A62.87,62.87,0,0,0,60.78,101V91.26c0-3-8.56-7.86-10.12-9.42s-7.78-6.22-8.55-10.91,8.55-15.06,8.55-15.06l2.34-8,6.22-5.33,2.58-3.93a73,73,0,0,1,7-3.89Z"/></svg>