<svg id="Layer_1" data-name="Layer 1" xmlns="http://www.w3.org/2000/svg" viewBox="0 0 200 200"><circle cx="99.94" cy="36.56" r="11.56"/><path d="M137.32,98.21,118.53,59.89a5.72,5.72,0,0,0-2.18-2.36,13.1,13.1,0,0,0-10.1-4.74H93.62a13.13,13.13,0,0,0-10.1,4.74,5.72,5.72,0,0,0-2.18,2.36L62.68,98a5.7,5.7,0,0,0,2.6,7.61h0a5.7,5.7,0,0,0,7.61-2.6L85.13,78v.47l-12.8,44.59h12.8l0,48.18H80.44V175H98.9v-3.77h0l0-48.18h1.9l0,52h18.62v-3.77h-4.88l0-48.18h.06V77.66l12.54,25.56a5.69,5.69,0,1,0,10.21-5Z"/></svg>