<svg id="Layer_1" data-name="Layer 1" xmlns="http://www.w3.org/2000/svg" viewBox="0 0 200 200"><path d="M93.42,81.06c-2-.94-4-1.79-5.85-2.57-.26,2-.49,4.15-.69,6.34,1.07-.65,2.15-1.29,3.25-1.92S92.32,81.66,93.42,81.06Z"/><path d="M90.13,117.09c-1.1-.63-2.18-1.27-3.25-1.92.2,2.2.43,4.33.7,6.36q2.88-1.2,5.85-2.58C92.33,118.34,91.23,117.73,90.13,117.09Z"/><path d="M109.87,82.91c1.1.63,2.18,1.27,3.25,1.92-.2-2.2-.43-4.33-.69-6.36q-2.9,1.2-5.86,2.58C107.67,81.66,108.77,82.27,109.87,82.91Z"/><path d="M70.37,103.86c-12.12,10.26-17.59,19.06-15.71,22.32,1.09,1.89,6.12,3.21,16.7.74a96.56,96.56,0,0,0,10.49-3.16c-.57-4-1-8.21-1.25-12.56C77,108.8,73.55,106.34,70.37,103.86Z"/><path d="M88.52,127.59c2.83,15.62,7.72,24.77,11.48,24.77s8.65-9.15,11.48-24.77c-3.74-1.51-7.59-3.25-11.48-5.19C96.11,124.34,92.26,126.08,88.52,127.59Z"/><path d="M80.6,88.8c.26-4.34.68-8.54,1.24-12.53C73.16,73.16,66,71.72,61.19,71.72c-3.47,0-5.75.74-6.53,2.1-1.09,1.89.27,6.91,7.7,14.83a94.84,94.84,0,0,0,8,7.51C73.53,93.67,77,91.2,80.6,88.8Z"/><path d="M75.14,100q2.49,1.91,5.16,3.78c0-1.25,0-2.51,0-3.78s0-2.52,0-3.78C78.49,97.49,76.77,98.76,75.14,100Z"/><path d="M111.48,72.41c-2.83-15.62-7.72-24.77-11.48-24.77s-8.65,9.15-11.48,24.77c3.74,1.51,7.59,3.25,11.48,5.19C103.89,75.66,107.74,73.92,111.48,72.41Z"/><path d="M124.86,100c-1.63-1.24-3.35-2.51-5.16-3.78,0,1.26,0,2.51,0,3.78s0,2.53,0,3.78Q122.37,101.91,124.86,100Z"/><path d="M145.34,73.82c-.66-1.15-2.79-2.09-6.75-2.09a44.45,44.45,0,0,0-10,1.35,96.56,96.56,0,0,0-10.49,3.16c.57,4,1,8.21,1.25,12.56,3.63,2.4,7.07,4.87,10.25,7.36a94.84,94.84,0,0,0,8-7.51C145.07,80.73,146.43,75.71,145.34,73.82Z"/><path d="M100,25a75,75,0,1,0,75,75A75,75,0,0,0,100,25Zm42,82.26c8.57,9.14,11.52,16.72,8.52,21.9-1.94,3.37-6,5.07-12,5.07a50.45,50.45,0,0,1-11.26-1.5,101.15,101.15,0,0,1-10.12-3A98.48,98.48,0,0,1,114.7,140c-3.63,12-8.71,18.32-14.7,18.32S88.93,152,85.3,140a98.48,98.48,0,0,1-2.47-10.26,100.38,100.38,0,0,1-10.12,3,50.45,50.45,0,0,1-11.26,1.5c-6,0-10-1.7-12-5.07-3-5.18-.05-12.76,8.52-21.9A102.1,102.1,0,0,1,65.66,100,102.1,102.1,0,0,1,58,92.74C49.44,83.6,46.49,76,49.49,70.84s11-6.42,23.22-3.57a100.38,100.38,0,0,1,10.12,3A98.48,98.48,0,0,1,85.3,60C88.93,48,94,41.68,100,41.68S111.07,48,114.7,60a98.48,98.48,0,0,1,2.47,10.26,101.15,101.15,0,0,1,10.12-3c12.19-2.85,20.23-1.62,23.22,3.57s.05,12.76-8.52,21.9a102.1,102.1,0,0,1-7.65,7.26A102.1,102.1,0,0,1,142,107.26Z"/><path d="M106.57,119q3,1.38,5.86,2.58c.26-2,.49-4.16.69-6.36-1.07.65-2.15,1.29-3.25,1.92S107.67,118.34,106.57,119Z"/><path d="M119.4,111.2c-.26,4.35-.68,8.56-1.25,12.56a96.56,96.56,0,0,0,10.49,3.16c10.58,2.47,15.61,1.15,16.7-.74,1.88-3.26-3.59-12.06-15.71-22.32C126.45,106.34,123,108.8,119.4,111.2Z"/><path d="M106.89,88.07c-2.35-1.35-4.64-2.6-6.89-3.77q-3.44,1.78-6.89,3.77c-2.34,1.36-4.57,2.72-6.71,4.08q-.16,3.8-.17,7.85t.17,7.85q3.27,2.09,6.71,4.08T100,115.7q3.44-1.78,6.89-3.77t6.71-4.08q.16-3.8.17-7.85t-.17-7.85C111.46,90.79,109.23,89.43,106.89,88.07Z"/></svg>