<svg id="Layer_1" data-name="Layer 1" xmlns="http://www.w3.org/2000/svg" viewBox="0 0 200 200"><path d="M99.89,95a8.2,8.2,0,1,0-8.19-8.2A8.2,8.2,0,0,0,99.89,95Z"/><path d="M112.71,103.31a4.1,4.1,0,0,0-.56-.84,9.31,9.31,0,0,0-7.78-4.2h-9a9.3,9.3,0,0,0-7.72,4.11,4.21,4.21,0,0,0-.66.93l-10.2,20.8a4,4,0,0,0,7.24,3.55l5.44-11.1v15h0l0,39.26H84.81v3.4H99v-3.4h0l0-37.91h1.9l0,37.91h0v3.4H115v-3.4H110.3l0-37.91h0V116.86l5.3,10.8a4,4,0,1,0,7.23-3.55Z"/><circle cx="44.12" cy="36.55" r="11.55"/><path d="M78.69,105.37a5.69,5.69,0,0,0,2.6-7.6L62.7,59.85a5.72,5.72,0,0,0-2.18-2.36,13.08,13.08,0,0,0-10.09-4.73H37.81a13.11,13.11,0,0,0-10.09,4.73,5.77,5.77,0,0,0-2.17,2.36l-18.63,38a5.68,5.68,0,1,0,10.2,5l10.81-22-12,45.47H29.56l0,44.95H24.65V175h18.6l0-48.72h1.9l0,44.95h0V175H63.6v-3.77H58.88l0-44.95H72.53L61.12,82.45l10,20.32A5.69,5.69,0,0,0,78.69,105.37Z"/><circle cx="155.92" cy="36.55" r="11.55"/><path d="M193.08,97.77,174.49,59.85a5.72,5.72,0,0,0-2.18-2.36,13.08,13.08,0,0,0-10.09-4.73H149.61a13.08,13.08,0,0,0-10.09,4.73,5.72,5.72,0,0,0-2.18,2.36l-18.63,38a5.68,5.68,0,1,0,10.2,5l10.81-22-12,45.47h13.68l0,44.95h-4.88V175h18.61l0-48.72H157l0,44.95h0V175h18.44v-3.77h-4.72l0-44.95h13.62l-11.4-43.83,10,20.32a5.68,5.68,0,1,0,10.2-5Z"/></svg>