<svg id="Layer_1" data-name="Layer 1" xmlns="http://www.w3.org/2000/svg" viewBox="0 0 200 200"><path d="M100,30.77A69.23,69.23,0,1,0,169.23,100,69.31,69.31,0,0,0,100,30.77ZM158.11,97H133c0-.47,0-.91,0-1.39,0-25.65-10.43-42.53-19-52.09A58.28,58.28,0,0,1,158.11,97Zm-54.24,61.05-.87.06V103h23.76c-1.25,21.6-7.78,35.79-13.37,44.11A55.69,55.69,0,0,1,103.87,158.05ZM74.35,103H97v54.58a64.11,64.11,0,0,1-9.09-10c-9-12.23-13.59-26.77-13.59-43.22C74.32,103.91,74.34,103.47,74.35,103ZM97,42.34V97H74.55c1.25-21.6,7.78-35.79,13.37-44.11A55.83,55.83,0,0,1,97,42.34ZM103,97V41.89l.76,0a63.9,63.9,0,0,1,9.64,10.45c9,12.23,13.59,26.77,13.59,43.22,0,.48,0,.92,0,1.39ZM87.79,43.11c-8,9.22-17.76,26-19.25,53.89H41.89A58.28,58.28,0,0,1,87.79,43.11ZM41.89,103H68.35c0,.47,0,.91,0,1.39,0,26,10.71,43,19.36,52.48A58.31,58.31,0,0,1,41.89,103Zm72,53.51c7.94-9.29,17.45-26,18.92-53.51h25.34A58.3,58.3,0,0,1,113.85,156.51Z"/></svg>