<?xml version="1.0" encoding="UTF-8"?>
<svg width="48px" height="33px" viewBox="0 0 48 33" version="1.1" xmlns="http://www.w3.org/2000/svg" xmlns:xlink="http://www.w3.org/1999/xlink">
    <!-- Generator: Sketch 55 (78076) - https://sketchapp.com -->
    <title>Group 17</title>
    <desc>Created with Sketch.</desc>
    <g id="Page-1" stroke="none" stroke-width="1" fill="none" fill-rule="evenodd">
        <g id="Group-17">
            <rect id="Rectangle" fill="#FFFFFF" x="0" y="0" width="48" height="33"></rect>
            <g id="Group-2">
                <rect id="Rectangle" fill="#FF6A44" x="21" y="0" width="27" height="3"></rect>
                <rect id="Rectangle" fill="#FF6A44" x="21" y="6" width="27" height="3"></rect>
                <rect id="Rectangle" fill="#FF6A44" x="21" y="12" width="27" height="3"></rect>
                <rect id="Rectangle" fill="#FF6A44" x="21" y="18" width="27" height="3"></rect>
                <rect id="Rectangle" fill="#FF6A44" x="0" y="24" width="48" height="3"></rect>
                <rect id="Rectangle" fill="#FF6A44" x="0" y="30" width="48" height="3"></rect>
                <rect id="Rectangle" fill="#0082EF" x="0" y="0" width="24" height="21"></rect>
                <rect id="Rectangle" fill="#FFFFFF" x="3" y="3" width="3" height="3"></rect>
                <rect id="Rectangle" fill="#FFFFFF" x="9" y="3" width="3" height="3"></rect>
                <rect id="Rectangle" fill="#FFFFFF" x="15" y="3" width="3" height="3"></rect>
                <rect id="Rectangle" fill="#FFFFFF" x="6" y="9" width="3" height="3"></rect>
                <rect id="Rectangle" fill="#FFFFFF" x="12" y="9" width="3" height="3"></rect>
                <rect id="Rectangle" fill="#FFFFFF" x="18" y="9" width="3" height="3"></rect>
                <rect id="Rectangle" fill="#FFFFFF" x="3" y="15" width="3" height="3"></rect>
                <rect id="Rectangle" fill="#FFFFFF" x="9" y="15" width="3" height="3"></rect>
                <rect id="Rectangle" fill="#FFFFFF" x="15" y="15" width="3" height="3"></rect>
            </g>
        </g>
    </g>
</svg>